<?xml version="1.0" encoding="utf-8"?>
<!-- Generator: Adobe Illustrator 16.0.0, SVG Export Plug-In . SVG Version: 6.00 Build 0)  -->
<!DOCTYPE svg PUBLIC "-//W3C//DTD SVG 1.1//EN" "http://www.w3.org/Graphics/SVG/1.1/DTD/svg11.dtd">
<svg version="1.1" id="Layer_1" xmlns="http://www.w3.org/2000/svg" xmlns:xlink="http://www.w3.org/1999/xlink" x="0px" y="0px"
	 width="189.922px" height="85.645px" viewBox="0 0 189.922 85.645" enable-background="new 0 0 189.922 85.645"
	 xml:space="preserve">
<g>
	<path fill-rule="evenodd" clip-rule="evenodd" fill="#EC2127" d="M96.847,25.805c0-4.043,4.489-5.44,7.849-5.44
		c3.003,0,6.749,1.545,6.749,5.024c0,4.132-4.43,5.53-7.879,5.53C100.474,30.918,96.847,29.402,96.847,25.805L96.847,25.805z"/>
	<path fill-rule="evenodd" clip-rule="evenodd" fill="#EC2127" d="M187.194,67.842c-9.395,2.705-19.026,4.162-28.719,5.352
		c-15.459,1.932-31.008,2.438-46.556,2.438c-18.551,0-37.191-1.754-55.356-5.678c-6.303-1.367-12.368-3.42-18.581-5.113
		c3.805-5.41,5.976-11.477,7.641-17.838l1.813-6.896l0.713-2.676c12.338-2.26,25.3-12.367,25.3-25.895
		C73.45,5.113,68.812,0,62.212,0c-6.095,0-11.981,2.706-16.143,7.076c-6.837,7.194-9.275,17.184-11.803,26.489
		c-3.508-0.089-6.748-0.595-10.048-1.754l-1.397,3.776c3.478,1.249,6.927,1.992,10.583,2.289
		c-1.635,7.967-3.151,16.471-7.224,23.605c-4.281-0.951-8.741-1.873-13.141-1.873C8.581,59.607,1,61.867,1,67.486
		c0,6.777,10.227,9.691,15.489,9.691c6.095,0,12.873-2.705,17.213-7.018c22.029,8.859,46.021,13.885,69.774,13.885
		c15.786,0,31.662-1.367,47.27-3.746c12.694-1.932,25.122-4.787,37.341-8.77L187.194,67.842z M54.929,13.111
		c1.427-3.419,4.43-7.611,8.562-7.611c3.478,0,4.578,3.716,4.578,6.6c0,9.364-9.96,18.937-18.819,20.543
		C50.945,26.102,52.312,19.354,54.929,13.111z M12.832,71.469c-1.992,0-6.154-0.832-6.154-3.537c0-2.676,4.073-3.152,5.946-3.152
		c3.389,0,6.6,0.863,9.722,2.053C19.878,69.508,16.578,71.469,12.832,71.469z"/>
	<path fill-rule="evenodd" clip-rule="evenodd" fill="#EC2127" d="M184.489,56.754c-1.397,0.861-2.914,1.754-4.608,1.754
		c-1.367,0-2.854-0.686-2.854-2.23c0-0.506,0.148-1.041,0.297-1.545l4.728-18.374h-12.219l-0.625,2.735
		c-2.17-2.467-5.023-3.538-8.324-3.538c-6.451,0-12.248,3.449-15.846,8.77c-1.843,2.766-2.616,5.619-2.765,8.889
		c-3.092,2.617-6.421,5.471-10.702,5.471c-2.943,0-4.995-1.812-4.995-4.816c0-4.488,2.379-13.348,8.057-13.348
		c2.141,0,3.716,1.219,5.024,2.795l1.457-5.471c-2.081-1.486-4.787-2.17-7.313-2.17c-9.841,0-20.275,7.016-20.275,17.659
		c0,0.445,0.029,0.922,0.06,1.398c-2.26,1.842-5.352,3.656-8.354,3.656c-1.516,0-2.259-0.744-2.259-2.26
		c0-0.506,0.06-1.041,0.208-1.547l4.548-18.223H94.528l-4.459,17.659c-5.678,2.914-11.921,5.529-18.373,5.529
		c-3.776,0-6.778-1.219-6.778-5.35c0-0.238,0-0.506,0-0.744c1.397,0.297,2.794,0.477,4.251,0.477c5.827,0,16.381-3.42,16.381-10.703
		c0-6.065-7.967-7.819-12.694-7.819c-9.187,0-21.435,6.719-21.435,17.065c0,9.215,9.335,13.109,17.243,13.109
		c7.73,0,14.627-2.764,21.256-6.48c1.249,3.865,4.43,6.57,8.622,6.57c5.856,0,11.742-3.002,16.351-6.393
		c2.527,4.549,7.552,6.482,12.575,6.482c5.946,0,11.684-3.391,15.846-7.402c1.992,4.459,6.035,7.254,11.03,7.254
		c4.667,0,7.729-1.754,10.643-5.293c1.278,3.062,3.865,5.113,7.313,5.113c2.021,0,4.133-0.475,5.946-1.367l7.224-3.508
		L184.489,56.754z M73.807,39.54c1.813,0,3.122,1.338,3.122,3.181c0,4.936-5.083,7.164-9.365,7.164
		c-0.684,0-1.367-0.117-2.051-0.236C66.583,45.635,68.753,39.54,73.807,39.54z M167.098,46.496l-1.813,7.076
		c-0.803,3.092-3.092,5.975-6.541,5.975c-2.348,0-3.656-2.17-3.656-4.34c0-2.973,1.575-7.879,2.794-10.523
		c0.981-2.111,2.527-4.162,5.055-4.162c2.17,0,4.548,1.605,4.548,3.953C167.483,45.188,167.276,45.842,167.098,46.496z"/>
</g>
</svg>
