<?xml version="1.0" encoding="utf-8"?>
<!-- Generator: Adobe Illustrator 15.1.0, SVG Export Plug-In . SVG Version: 6.00 Build 0)  -->
<!DOCTYPE svg PUBLIC "-//W3C//DTD SVG 1.1//EN" "http://www.w3.org/Graphics/SVG/1.1/DTD/svg11.dtd">
<svg version="1.1" id="Layer_1" xmlns="http://www.w3.org/2000/svg" xmlns:xlink="http://www.w3.org/1999/xlink" x="0px" y="0px"
	 width="152px" height="148px" viewBox="0 0 152 148" enable-background="new 0 0 152 148" xml:space="preserve">
<g>
	<path fill-rule="evenodd" clip-rule="evenodd" fill="#ED1C24" d="M75.688,145.883c40.135,0,72.684-32.369,72.684-72.293
		c0-39.943-32.549-72.326-72.684-72.326C35.538,1.264,3,33.646,3,73.59C3,113.514,35.538,145.883,75.688,145.883L75.688,145.883z"/>
	<path fill-rule="evenodd" clip-rule="evenodd" fill="#FFFFFF" d="M133.472,77.691c0,0-1.893,1.352-3.234,1.352
		c-1.021,0-1.584-0.845-1.584-1.771c0-2.091,3.299-12.396,3.299-12.396l-8.059,0.108l-0.419,1.396c0,0-1.172-2.362-5.395-2.362
		c-8.195,0-12.693,7.026-12.883,11.162c-0.039,0.894-0.053,1.024-0.053,1.024c-0.189,0.219-3.083,3.499-6.638,3.499
		c-2.848,0-3.319-2.373-3.319-3.889c0-1.644,1.375-8.139,5.25-8.139c2.115,0,3.404,1.821,3.404,1.821l1.146-3.715
		c0,0-1.807-1.396-5.479-1.406c-7.928-0.01-13.335,5.91-13.524,11.242c-0.039,0.795-0.072,1.057-0.06,1.103
		c-0.262,0.321-2.212,2.554-4.746,2.554c-1.734,0-1.734-1.346-1.734-1.944c0-0.809,3.424-12.406,3.424-12.406l-8.953,0.127
		L70.72,76.316c0,0-4.908,3.535-11.769,4.022c-3.537,0.239-4.759-1.892-4.759-3.148c0-0.515,0-0.515,0-0.515
		s1.443,0.089,2.525,0.089c0.841,0,11.297-0.72,11.297-7.085c0-3.638-3.654-5.023-8.283-5.023c-8.543,0-14.533,5.272-14.533,11.529
		c0,5.708,4.908,8.16,11.227,8.16c7.173,0,14.173-4.363,14.173-4.363s0.391,4.363,6.05,4.363c5.838,0,10.414-4.363,10.414-4.363
		s2.547,4.196,8.359,4.196c5.938,0,10.494-4.776,10.494-4.776s1.591,4.505,7.47,4.505c4.603,0,7.063-2.999,7.063-2.999
		s1.31,2.999,5.322,2.999c4.884,0,8.55-3.428,8.55-3.428L133.472,77.691L133.472,77.691z M60.102,67.246
		c1.203,0.072,2.015,0.926,1.976,1.804c-0.201,5.659-7.214,4.782-7.214,4.782S56.005,66.997,60.102,67.246L60.102,67.246z
		 M116.418,79.704c-2.206,0-2.206-2.412-2.206-3.109c0-1.843,1.453-9.167,5.446-9.167c1.683,0,2.586,1.414,2.586,2.47
		C122.244,70.117,121.229,79.704,116.418,79.704L116.418,79.704z"/>
	<path fill-rule="evenodd" clip-rule="evenodd" fill="#FFFFFF" d="M135.082,85.311c0,0-18.809,6.521-54.709,6.082
		c-24.757-0.301-43.639-7.574-43.639-7.574s0.612-1.185,1.013-1.983c2.483-5.031,5.407-15.245,5.407-15.245
		s17.018-4.724,17.018-18.165c0-4.255-3.975-6.997-7.901-7.165C38.557,40.733,34.752,60.171,33.909,63.48
		c-0.049,0.239-0.07,0.309-0.07,0.309c-4.237-0.578-6.619-1.436-6.619-1.436l-0.974,2.621c2.856,1.345,7.011,1.785,7.011,1.785
		c-0.82,5.209-4.887,15.075-4.887,15.075s-3.756-1.234-8.414-1.234c-6.049,0-8.124,2.857-8.273,4.651
		c-0.401,4.645,5.468,6.828,9.566,6.828c7.992,0,12.15-4.295,12.15-4.295s22.484,8.449,45.944,8.449
		c30.696,0,56.595-8.131,56.595-8.131L135.082,85.311L135.082,85.311z M52.922,45.116c2.633,0,3.504,2.123,3.285,4.036
		c-1.282,11.23-12.491,13.8-12.491,13.8S46.5,45.116,52.922,45.116L52.922,45.116z M19.526,88.463
		c-2.263,0.069-3.736-1.427-3.736-2.262c0-1.855,2.283-2.144,3.736-2.046c3.506,0.19,6.521,1.388,6.521,1.388
		S22.491,88.371,19.526,88.463L19.526,88.463z"/>
	<path fill-rule="evenodd" clip-rule="evenodd" fill="#FFFFFF" d="M80.163,54.362c-2.854,0-4.957,1.157-4.957,3.817
		c0,2.69,2.437,3.429,4.957,3.429c2.534,0,4.852-1.187,4.852-3.926C85.015,54.931,82.232,54.362,80.163,54.362L80.163,54.362z"/>
</g>
</svg>
