<?xml version="1.0" encoding="utf-8"?>
<!-- Generator: Adobe Illustrator 16.0.0, SVG Export Plug-In . SVG Version: 6.00 Build 0)  -->
<!DOCTYPE svg PUBLIC "-//W3C//DTD SVG 1.1//EN" "http://www.w3.org/Graphics/SVG/1.1/DTD/svg11.dtd">
<svg version="1.1" id="Layer_1" xmlns="http://www.w3.org/2000/svg" xmlns:xlink="http://www.w3.org/1999/xlink" x="0px" y="0px"
	 width="512px" height="512px" viewBox="0 0 512 512" enable-background="new 0 0 512 512" xml:space="preserve">
<g>
	<g>
		<path fill="#FFFFFF" d="M232.056,296.516c-2.62-6.197-3.949-12.779-3.949-19.559c0-22.039,14.109-41.297,35.108-47.924
			l1.891,5.989c-18.373,5.798-30.717,22.65-30.717,41.935c0,5.936,1.162,11.693,3.454,17.111L232.056,296.516z"/>
	</g>
	<g>
		<polygon fill="#FFFFFF" points="411,166 411,352 91,352 91,226 135,226 135,232 97,232 97,331 220.482,331 227.962,337 97,337 
			97,346 405,346 405,337 317.652,337 324.982,331 405,331 405,232 335.632,232 329.973,226 405,226 405,172 230,172 230,185 
			91,185 91,178 223,178 223,166 		"/>
	</g>
	<path fill="#FFFFFF" d="M242.192,334.052"/>
	<g>
		<polygon fill="#FFFFFF" points="215.542,232 182,232 182,226 219.553,226 		"/>
	</g>
	<g>
		<path fill="#FFFFFF" d="M270.977,208.441c-9.523,0-17.271-7.748-17.271-17.272s7.748-17.272,17.271-17.272
			c9.524,0,17.272,7.748,17.272,17.272S280.502,208.441,270.977,208.441z M270.977,180.178c-6.061,0-10.99,4.93-10.99,10.991
			s4.93,10.991,10.99,10.991c6.062,0,10.992-4.93,10.992-10.991C281.969,185.109,277.038,180.178,270.977,180.178z"/>
	</g>
	<g>
		<path fill="#FFFFFF" d="M158.975,239.32c-6.926,0-12.561-5.635-12.561-12.561c0-6.926,5.635-12.561,12.561-12.561
			c6.926,0,12.561,5.635,12.561,12.561C171.536,233.685,165.901,239.32,158.975,239.32z M158.975,220.478
			c-3.463,0-6.281,2.818-6.281,6.281c0,3.463,2.818,6.281,6.281,6.281c3.463,0,6.281-2.818,6.281-6.281
			C165.255,223.296,162.438,220.478,158.975,220.478z"/>
	</g>
	<g>
		<polygon fill="#FFFFFF" points="218,175 212,175 212,172 169,172 169,175 163,175 163,166 218,166 		"/>
	</g>
	<g>
		<path fill="#FFFFFF" d="M101,221H86v-31h15V221z M92,215h3v-19h-3V215z"/>
	</g>
	<g>
		<polygon fill="#FFFFFF" points="158,175 151,175 151,167 124,167 124,175 118,175 118,161 158,161 		"/>
	</g>
	<path fill="#FFFFFF" d="M213.406,276.48"/>
	<path fill="#FFFFFF" d="M391,186v25h-37v-25H391 M397,180h-49v37h49V180L397,180z"/>
	<g>
		<path fill="#FFFFFF" d="M274.641,340.332c-35.497,0-64.375-28.879-64.375-64.376s28.879-64.376,64.375-64.376
			c35.498,0,64.377,28.879,64.377,64.376S310.139,340.332,274.641,340.332z M274.641,217.861c-32.034,0-58.095,26.061-58.095,58.095
			s26.061,58.095,58.095,58.095c32.035,0,58.096-26.061,58.096-58.095S306.676,217.861,274.641,217.861z"/>
	</g>
	<g>
		<path fill="#FFFFFF" d="M425.898,238.273c0,6.453-4.067,11.933-10.207,13.613c-0.235,0.063-0.691,0.126-0.691,0.173v-6.547
			c3-1.193,4.71-3.988,4.71-7.238c0-3.266-1.71-6.045-4.71-7.238v-6.548c0,0.031,0.283,0.063,0.456,0.11
			C421.627,226.183,425.898,231.804,425.898,238.273z"/>
	</g>
</g>
</svg>
