<?xml version="1.0" encoding="utf-8"?>
<!-- Generator: Adobe Illustrator 16.0.0, SVG Export Plug-In . SVG Version: 6.00 Build 0)  -->
<!DOCTYPE svg PUBLIC "-//W3C//DTD SVG 1.1//EN" "http://www.w3.org/Graphics/SVG/1.1/DTD/svg11.dtd">
<svg version="1.1" id="Layer_1" xmlns="http://www.w3.org/2000/svg" xmlns:xlink="http://www.w3.org/1999/xlink" x="0px" y="0px"
	 width="512px" height="512px" viewBox="0 0 512 512" enable-background="new 0 0 512 512" xml:space="preserve">
<g>
	<g>
		<path fill="#FFFFFF" d="M435,171v-20H77v20h11v28H77v161h358V199h-11v-28H435z M429,205v149H83V205h11v-40H83v-8h346v8h-11v40H429
			z"/>
	</g>
	<g>
		<path fill="#FFFFFF" d="M289.441,352.442c-53.485,0-97-43.515-97-97s43.514-97,97-97c53.486,0,97,43.514,97,97
			C386.441,308.929,342.929,352.442,289.441,352.442z M289.441,164.442c-50.177,0-91,40.822-91,91c0,50.178,40.822,91,91,91
			c50.179,0,91-40.822,91-91C380.441,205.264,339.62,164.442,289.441,164.442z"/>
	</g>
	<g>
		<path fill="#FFFFFF" d="M397.75,190.5c-6.479,0-11.75-5.271-11.75-11.75S391.271,167,397.75,167s11.75,5.271,11.75,11.75
			S404.229,190.5,397.75,190.5z M397.75,173c-3.171,0-5.75,2.58-5.75,5.75s2.579,5.75,5.75,5.75s5.75-2.58,5.75-5.75
			S400.921,173,397.75,173z"/>
	</g>
	<g>
		<path fill="#FFFFFF" d="M397,239.5c-1.97,0-3.87,0.34-5.641,0.96c0.311,2.03,0.541,4.1,0.711,6.18c1.47-0.73,3.16-1.14,4.91-1.14
			c6.069,0,11.01,4.93,11.01,11c0,6.07-4.92,11-10.99,11c-1.811,0-3.67-0.439-5.18-1.21c-0.211,1.94-0.51,3.87-0.83,5.78
			c0.01,0.01,0.01,0.029,0.01,0.039c0,0.011,0,0.011,0,0.021c0,0.04,0.01,0.09,0.02,0.09c1.86,0.71,3.881,1.28,5.98,1.28
			c9.37,0,17-7.63,17-17S406.37,239.5,397,239.5z"/>
	</g>
	<g>
		<rect x="70" y="182" fill="#FFFFFF" width="15" height="6"/>
	</g>
	<g>
		<rect x="427" y="182" fill="#FFFFFF" width="15" height="6"/>
	</g>
	<circle fill="#FFFFFF" cx="397" cy="308.5" r="7"/>
	<g>
		<path fill="#FFFFFF" d="M289.441,330.327c-41.292,0-74.884-33.593-74.884-74.885c0-41.292,33.593-74.885,74.884-74.885
			c41.293,0,74.886,33.593,74.886,74.885C364.327,296.734,330.734,330.327,289.441,330.327z M289.441,186.558
			c-37.982,0-68.884,30.901-68.884,68.885s30.901,68.885,68.884,68.885c37.984,0,68.886-30.901,68.886-68.885
			S327.426,186.558,289.441,186.558z"/>
	</g>
	<g>
		<path fill="#FFFFFF" d="M236.964,274.586c-2.163-6.029-3.259-12.361-3.259-18.823c0-24.978,16.794-47.07,40.841-53.724
			l1.601,5.782c-21.457,5.937-36.44,25.651-36.44,47.941c0,5.77,0.978,11.42,2.907,16.799L236.964,274.586z"/>
	</g>
</g>
</svg>
