<?xml version="1.0" encoding="utf-8"?>
<!-- Generator: Adobe Illustrator 16.0.0, SVG Export Plug-In . SVG Version: 6.00 Build 0)  -->
<!DOCTYPE svg PUBLIC "-//W3C//DTD SVG 1.1//EN" "http://www.w3.org/Graphics/SVG/1.1/DTD/svg11.dtd">
<svg version="1.1" id="Layer_1" xmlns="http://www.w3.org/2000/svg" xmlns:xlink="http://www.w3.org/1999/xlink" x="0px" y="0px"
	 width="512px" height="512px" viewBox="0 0 512 512" enable-background="new 0 0 512 512" xml:space="preserve">
<g>
	<g>
		<path fill="#FFFFFF" d="M374.7,165c-14.39-7.66-30.8-12-48.2-12s-33.811,4.34-48.2,12H82v177.52L98.19,354h68.36l19.67-10h86.8
			c15.601,9.51,33.91,15,53.48,15s37.88-5.49,53.48-15H430V165H374.7z M184.78,338l-19.67,10h-64.96L88,339.48V190h145.5l6-6H88v-13
			h180.391C241.3,189.58,223.5,220.75,223.5,256c0,33.42,16,63.17,40.74,82H184.78z M378.27,338c-3.52,2.23-7.189,4.24-10.989,6
			c-12.4,5.78-26.23,9-40.78,9s-28.38-3.22-40.78-9c-3.8-1.76-7.47-3.77-10.989-6c-27.161-17.21-45.23-47.53-45.23-82
			c0-36.57,20.34-68.48,50.3-85c4.19-2.31,8.58-4.33,13.12-6c10.471-3.88,21.78-6,33.58-6s23.109,2.12,33.58,6
			c4.54,1.67,8.93,3.69,13.12,6c29.96,16.52,50.3,48.43,50.3,85C423.5,290.47,405.43,320.79,378.27,338z M424,338h-35.24
			C405.32,325.4,418,307.91,424,287.7V338z M424,184h-14.5l5,6h9.5v34.3c-7-21.86-20.8-40.55-39.391-53.3H424V184z"/>
	</g>
	<circle fill="none" stroke="#FFFFFF" stroke-width="6" stroke-miterlimit="10" cx="206.75" cy="204.25" r="8.75"/>
	<g>
		<path fill="#FFFFFF" d="M77,188.18v-6.09c-6,0.75-11,6.03-11,12.41s5,11.66,11,12.41v-6.09c-2-0.68-5-3.26-5-6.32
			S75,188.86,77,188.18z"/>
	</g>
	<g>
		<path fill="#FFFFFF" d="M439,194.5c0,3.06-2,5.64-5,6.32v6.09c7-0.75,11-6.03,11-12.41s-5-11.66-11-12.41v6.09
			C437,188.86,439,191.44,439,194.5z"/>
	</g>
	<g>
		<path fill="#FFFFFF" d="M172.5,208h-19c-2.761,0-5-2.239-5-5s2.239-5,5-5h19c2.761,0,5,2.239,5,5S175.261,208,172.5,208z"/>
	</g>
	<g>
		<path fill="#FFFFFF" d="M89,152v9h6v-3h41v3h6v-9H89z"/>
	</g>
	<g>
		<path fill="#FFFFFF" d="M326.5,319c-34.738,0-63-28.262-63-63s28.262-63,63-63s63,28.262,63,63S361.238,319,326.5,319z M326.5,199
			c-31.43,0-57,25.57-57,57c0,31.43,25.57,57,57,57s57-25.57,57-57C383.5,224.57,357.93,199,326.5,199z"/>
	</g>
	<g>
		<path fill="#FFFFFF" d="M284.134,273.947c-2.411-5.686-3.634-11.723-3.634-17.947c0-19.532,12.381-36.985,30.809-43.431
			l1.979,5.663C297.266,223.837,286.5,239.015,286.5,256c0,5.415,1.062,10.665,3.157,15.604L284.134,273.947z"/>
	</g>
</g>
</svg>
