<?xml version="1.0" encoding="utf-8"?>
<!-- Generator: Adobe Illustrator 16.0.0, SVG Export Plug-In . SVG Version: 6.00 Build 0)  -->
<!DOCTYPE svg PUBLIC "-//W3C//DTD SVG 1.1//EN" "http://www.w3.org/Graphics/SVG/1.1/DTD/svg11.dtd">
<svg version="1.1" id="Layer_1" xmlns="http://www.w3.org/2000/svg" xmlns:xlink="http://www.w3.org/1999/xlink" x="0px" y="0px"
	 width="512px" height="512px" viewBox="0 0 512 512" enable-background="new 0 0 512 512" xml:space="preserve">
<g>
	<path fill="#FFFFFF" d="M284.333,370c-44.112,0-80-35.888-80-80c0-44.112,35.888-80,80-80c44.112,0,80,35.888,80,80
		C364.333,334.112,328.445,370,284.333,370z M284.333,216.025c-40.79,0-73.975,33.185-73.975,73.975s33.185,73.975,73.975,73.975
		S358.309,330.79,358.309,290S325.123,216.025,284.333,216.025z"/>
</g>
<g>
	<path fill="#FFFFFF" d="M173,249c-11.028,0-20-8.972-20-20s8.972-20,20-20s20,8.972,20,20S184.028,249,173,249z M173,215
		c-7.72,0-14,6.28-14,14s6.28,14,14,14s14-6.28,14-14S180.72,215,173,215z"/>
</g>
<circle fill="#FFFFFF" cx="386.5" cy="254.167" r="9"/>
<g>
	<path fill="#FFFFFF" d="M110,185v8h6v-2h18v2h6v-8H110z"/>
</g>
<g>
	<path fill="#FFFFFF" d="M142,181v12h6v-6h20v6h6v-12H142z"/>
</g>
<g>
	<path fill="#FFFFFF" d="M177,176v17h6v-11h33v11h6v-17H177z"/>
</g>
<g>
	<path fill="#FFFFFF" d="M346,176v17h6v-11h42v11h6v-17H346z"/>
</g>
<g>
	<polygon fill="#FFFFFF" points="219,232 199,232 199,226 226,226 	"/>
</g>
<g>
	<path fill="#FFFFFF" d="M411.61,197H342v-24.01L308.49,129h-48.98L226,172.99V197H100.39L96,228.79V364l2.37,18h315.26l2.37-17.8
		V229L411.61,197z M262.49,135h43.02l27.43,36H235.06L262.49,135z M232,177h104v20H232V177z M410,361h-76l-11,6h86.57l-1.2,9H103.63
		l-1.2-9H243l-11-6H102V232h43v-6h-42.56l3.17-23h300.78l3.171,23H343l7,6h60V361z"/>
</g>
<g>
	<path fill="#FFFFFF" d="M372.33,274.5c-0.11,0-0.221,0-0.33,0.01v6c0.109-0.01,0.22-0.01,0.33-0.01c4.41,0,8,3.59,8,8s-3.59,8-8,8
		c-0.11,0-0.221,0-0.33-0.01v6c0.109,0.01,0.22,0.01,0.33,0.01c7.72,0,14-6.28,14-14S380.05,274.5,372.33,274.5z"/>
</g>
<g>
	<path fill="#FFFFFF" d="M284.333,345.333c-30.327,0-55-24.673-55-55s24.673-55,55-55s55,24.672,55,55
		S314.66,345.333,284.333,345.333z M284.333,241.333c-27.019,0-49,21.981-49,49s21.981,49,49,49s49-21.981,49-49
		S311.352,241.333,284.333,241.333z"/>
</g>
<g>
	<path fill="#FFFFFF" d="M251.299,303.578c-1.691-4.241-2.549-8.727-2.549-13.328c0-16.725,11.344-31.121,27.588-35.012l1.396,5.836
		c-13.532,3.24-22.984,15.238-22.984,29.176c0,3.839,0.714,7.575,2.122,11.105L251.299,303.578z"/>
</g>
</svg>
